<?xml version="1.0" encoding="utf-8"?>
<!-- Generator: Adobe Illustrator 21.0.2, SVG Export Plug-In . SVG Version: 6.00 Build 0)  -->
<svg version="1.1" id="Layer_1" xmlns="http://www.w3.org/2000/svg" xmlns:xlink="http://www.w3.org/1999/xlink" x="0px" y="0px"
	 viewBox="0 0 318.9 113.1" style="enable-background:new 0 0 318.9 113.1;" xml:space="preserve">
<style type="text/css">
	.st0{enable-background:new    ;}
	.st1{fill:#FCC9B9;}
</style>
<title>Logo</title>
<g class="st0">
	<path class="st1" d="M7.9,40.3L2.3,39v-2.2h16.3l13.2,33.3l13.5-33.3h15.7V39l-5.6,1.2v39.1l5.6,1.2v2.2H42.1v-2.2l5.1-1.2V42.8
		l-16.2,40h-2.6L12.6,42.9v57.7l4.6,1.2v2.2H2.3v-2.2l5.6-1.2V40.3z"/>
	<path class="st1" d="M81.3,79.3l7.9,1.2v2.2H65.4v-2.2l7.8-1.2V40.3L66.7,39v-2.2h14.6V79.3z M81.8,21.9c0,1.4-0.5,2.7-1.6,3.7
		c-1,1-2.3,1.6-3.8,1.6c-1.4,0-2.7-0.5-3.7-1.6c-1-1-1.6-2.3-1.6-3.7c0-1.5,0.5-2.7,1.6-3.8c1-1,2.3-1.6,3.7-1.6
		c1.5,0,2.7,0.5,3.8,1.6C81.3,19.1,81.8,20.4,81.8,21.9z"/>
	<path class="st1" d="M106.9,40.6c2.5-1.4,5.2-2.6,8-3.5s5.2-1.4,7.1-1.4c4,0,7,1.2,9,3.5c2,2.3,3,5.7,3,10.1v30.2l5.6,1.2v2.2
		h-19.8v-2.2l6.1-1.2V50c0-2.7-0.7-4.8-2-6.4c-1.3-1.5-3.4-2.3-6.1-2.3c-2.9,0-6.5,0.5-10.8,1.4v36.6l6.2,1.2v2.2H93.4v-2.2l5.5-1.2
		V40.3L93.4,39v-2.2h13.1L106.9,40.6z"/>
	<path class="st1" d="M159.1,79.3l7.9,1.2v2.2h-23.8v-2.2l7.8-1.2V40.3l-6.5-1.2v-2.2h14.6V79.3z M159.6,21.9c0,1.4-0.5,2.7-1.6,3.7
		c-1,1-2.3,1.6-3.8,1.6c-1.4,0-2.7-0.5-3.7-1.6c-1-1-1.6-2.3-1.6-3.7c0-1.5,0.5-2.7,1.6-3.8c1-1,2.3-1.6,3.7-1.6
		c1.5,0,2.7,0.5,3.8,1.6C159,19.1,159.6,20.4,159.6,21.9z"/>
	<path class="st1" d="M184.8,40.6c2.4-1.4,5-2.6,7.8-3.5c2.7-0.9,5.1-1.4,7.2-1.4c2.2,0,4.3,0.4,6.2,1.3c1.9,0.8,3.3,2.2,4.3,4.1
		c2.5-1.4,5.4-2.6,8.8-3.7s6.2-1.6,8.4-1.6c7.8,0,11.7,4.5,11.7,13.5v30.2l5.9,1.2v2.2h-20.8v-2.2l6.8-1.2V50c0-5.6-2.6-8.4-7.8-8.4
		c-0.8,0-1.8,0.1-3,0.2c-1.1,0.1-2.2,0.3-3.4,0.4c-1.1,0.2-2.2,0.4-3.2,0.6c-1,0.2-1.9,0.4-2.6,0.5c0.6,1.8,0.8,3.7,0.8,5.8v30.2
		l6.9,1.2v2.2h-21.8v-2.2l6.8-1.2V50c0-2.7-0.7-4.8-2.1-6.2c-1.4-1.4-3.5-2.2-6.2-2.2c-2.9,0-6.4,0.5-10.7,1.4v36.3l6.9,1.2v2.2
		h-20.8v-2.2l5.8-1.2V40.3l-5.8-1.2v-2.2h13.4L184.8,40.6z"/>
	<path class="st1" d="M269.3,35.8c5,0,8.7,1,11.1,3.1c2.4,2.1,3.5,5.2,3.5,9.4v31l5.7,1.2v2.2h-12.6l-0.9-4.6
		c-3.7,3.7-8.4,5.6-14.2,5.6c-7.8,0-11.8-4.6-11.8-13.7c0-3.1,0.6-5.6,1.8-7.6c1.2-2,3.1-3.5,5.7-4.6c2.6-1.1,6.4-1.6,11.3-1.7
		l6.9-0.2v-7.2c0-3.2-0.6-5.5-1.7-7c-1.2-1.5-2.9-2.2-5.3-2.2c-3.3,0-6.2,0.8-8.9,2.3l-1.7,5.7h-2.7v-10
		C260.7,36.4,265.3,35.8,269.3,35.8z M275.8,59.4l-6.4,0.2c-4.4,0.2-7.3,1-8.9,2.5c-1.5,1.5-2.3,4.1-2.3,7.7c0,5.7,2.3,8.6,7,8.6
		c2.2,0,4.1-0.3,5.7-0.8c1.6-0.5,3.2-1.1,4.9-1.9V59.4z"/>
	<path class="st1" d="M308.9,79.3l7.9,1.2v2.2H293v-2.2l7.8-1.2V16.7l-7.8-1.2v-2.2h15.9V79.3z"/>
</g>
</svg>
