<svg id="Layer_1" data-name="Layer 1" xmlns="http://www.w3.org/2000/svg" viewBox="0 0 356 356"><defs><style>.cls-1{fill:#fcc9b9;}.cls-2{fill:#fefefe;}.cls-3{fill:#333;}.cls-4{fill:#fff;}</style></defs><title>RatingActive</title><circle class="cls-1" cx="178" cy="178" r="178"/><path class="cls-2" d="M413,122" transform="translate(-22 -22)"/><path class="cls-2" d="M475,158" transform="translate(-22 -22)"/><ellipse class="cls-3" cx="178" cy="214" rx="138" ry="88"/><path class="cls-3" d="M74,118a192.3,192.3,0,0,0,4.41,87.25L151,175a73.57,73.57,0,0,0-12-19,80.83,80.83,0,0,0-18-15,83.49,83.49,0,0,0-22-10c-6.47-1.82-11-2.18-17-6A36.3,36.3,0,0,1,74,118Z" transform="translate(-22 -22)"/><path class="cls-3" d="M326.94,118a192.3,192.3,0,0,1-4.41,87.25L249.94,175a73.57,73.57,0,0,1,12-19,80.83,80.83,0,0,1,18-15,83.49,83.49,0,0,1,22-10c6.47-1.82,11-2.18,17-6A36.3,36.3,0,0,0,326.94,118Z" transform="translate(-22 -22)"/><path class="cls-2" d="M200.13,249.7a21.24,21.24,0,0,1-8.4,11.61,24.46,24.46,0,0,1-6.72,3.34,24.73,24.73,0,0,1-15,0,24.4,24.4,0,0,1-6.71-3.34,21.29,21.29,0,0,1-8.4-11.6l.26-.14a25.4,25.4,0,0,0,44.66,0Z" transform="translate(-22 -22)"/><path class="cls-2" d="M245.05,249.7a21.24,21.24,0,0,1-8.4,11.61,24.46,24.46,0,0,1-6.72,3.34,24.73,24.73,0,0,1-15,0,24.4,24.4,0,0,1-6.71-3.34,21.29,21.29,0,0,1-8.4-11.6l.26-.14a25.4,25.4,0,0,0,44.66,0Z" transform="translate(-22 -22)"/><path class="cls-4" d="M161.19,259.24c9.34,4.92,19.15,5.69,25.88,2.88a28.11,28.11,0,0,0,8.63-5.75c1.8-1.86,2.69-2.78,3.31-4.37.37-.94.6-2,1-2s.64,1.07,1,2c.61,1.58,1.51,2.51,3.31,4.37a27.76,27.76,0,0,0,12.94,7.19c11,2.55,20-3.24,21.56-4.31-.25,2.25-2.23,19.5-8.62,30.19a38.29,38.29,0,0,1-7.19,8.63,35.2,35.2,0,0,1-5.75,4.31A33.73,33.73,0,0,1,177,298.06a40.45,40.45,0,0,1-8.62-11.5C162.63,275.8,161.48,263.57,161.19,259.24Z" transform="translate(-22 -22)"/><path class="cls-3" d="M226,298" transform="translate(-22 -22)"/></svg>